<?xml version="1.0" encoding="UTF-8"?>
<svg width="32px" height="32px" viewBox="0 0 32 32" version="1.1" xmlns="http://www.w3.org/2000/svg" xmlns:xlink="http://www.w3.org/1999/xlink">
    <!-- Generator: Sketch 57.1 (83088) - https://sketch.com -->
    <title>Fill 210</title>
    <desc>Created with Sketch.</desc>
    <g id="Page-1" stroke="none" stroke-width="1" fill="none" fill-rule="evenodd">
        <g id="Desktop-HD-Copy" transform="translate(-729.000000, -196.000000)" fill="#444444">
            <g id="Social" transform="translate(629.000000, 196.000000)">
                <path d="M118.274,22.385 C118.274,22.385 117.192,22.516 116,22.516 C114.808,22.516 113.712,22.395 113.712,22.395 C110.927,22.078 108,21.002 108,16.197 C108,14.828 108.488,13.709 109.29,12.832 C109.162,12.515 108.731,11.24 109.413,9.513 C109.413,9.513 110.466,9.176 112.862,10.799 C113.862,10.521 114.935,10.382 116.001,10.377 C117.066,10.382 118.139,10.521 119.141,10.799 C121.535,9.176 122.586,9.513 122.586,9.513 C123.27,11.24 122.84,12.515 122.711,12.832 C123.514,13.709 124,14.828 124,16.197 C124,21.014 121.068,22.075 118.274,22.385 M116,0 C107.163,0 100,7.163 100,16 C100,24.836 107.163,32 116,32 C124.836,32 132,24.836 132,16 C132,7.163 124.836,0 116,0" id="Fill-210"></path>
            </g>
        </g>
    </g>
</svg>