<?xml version="1.0" encoding="UTF-8"?>
<svg width="32px" height="32px" viewBox="0 0 32 32" version="1.1" xmlns="http://www.w3.org/2000/svg" xmlns:xlink="http://www.w3.org/1999/xlink">
    <!-- Generator: Sketch 57.1 (83088) - https://sketch.com -->
    <title>Fill 209</title>
    <desc>Created with Sketch.</desc>
    <g id="Page-1" stroke="none" stroke-width="1" fill="none" fill-rule="evenodd">
        <g id="Desktop-HD-Copy" transform="translate(-679.000000, -196.000000)" fill="#444444">
            <g id="Social" transform="translate(629.000000, 196.000000)">
                <path d="M74,23.985 L70.685,23.985 L70.685,18.797 C70.685,17.56 70.663,15.969 68.962,15.969 C67.237,15.969 66.974,17.317 66.974,18.709 L66.974,23.985 L63.662,23.985 L63.662,13.317 L66.84,13.317 L66.84,14.776 L66.886,14.776 C67.328,13.937 68.41,13.052 70.023,13.052 C73.38,13.052 74,15.261 74,18.134 L74,23.985 Z M59.924,11.86 C58.859,11.86 58,10.998 58,9.937 C58,8.876 58.859,8.014 59.924,8.014 C60.984,8.014 61.845,8.876 61.845,9.937 C61.845,10.998 60.984,11.86 59.924,11.86 L59.924,11.86 Z M61.582,23.985 L58.263,23.985 L58.263,13.317 L61.582,13.317 L61.582,23.985 Z M66,0 C57.163,0 50,7.163 50,16 C50,24.836 57.163,32 66,32 C74.837,32 82,24.836 82,16 C82,7.163 74.837,0 66,0 L66,0 Z" id="Fill-209"></path>
            </g>
        </g>
    </g>
</svg>