<svg version="1" xmlns="http://www.w3.org/2000/svg" width="361.333" height="361.333" viewBox="0 0 271.000000 271.000000"><path d="M122 .6C97.7 3.7 75.4 12.1 57 25.1 47.4 31.9 31.9 47.4 25.1 57c-10.2 14.4-18 32.3-22.2 50.5-3.3 14.5-3.3 41.5 0 56 4.2 18.2 12 36.1 22.2 50.5 6.8 9.6 22.3 25.1 31.9 31.9 14.4 10.2 32.3 18 50.5 22.2 14.5 3.3 41.5 3.3 56 0 18.2-4.2 36.1-12 50.5-22.2 9.6-6.8 25.1-22.3 31.9-31.9 10.4-14.7 18.4-33.1 22.3-51.3 3.2-14.9 3.2-40-.1-54.6-2.8-13-6-22-12.1-34.1-6.6-13.1-13.8-22.8-25-34-25.3-25.4-56.2-38.6-92-39.5-7.4-.2-15.1-.1-17 .1zm36.3 14.5c3.1.6 5.7 1.5 5.7 1.9 0 .7-33.2 159-34.5 164.7l-.5 2.3h119l-3.6 7.2c-2 4-5.6 10.1-8.1 13.6l-4.4 6.2h-77c-62.9 0-76.9-.2-76.9-1.3 0-.7 9.2-44.9 20.5-98.1 11.3-53.3 20.5-97 20.5-97.2 0-1.6 30.6-1.1 39.3.7zM70.9 121.5c-11.6 55-21.3 100.2-21.6 100.5-.6.6-4.5-4-12.5-14.5-9.9-13.1-17.4-29.7-21.5-47.7-2.3-10.2-2.3-38.4 0-48.6C24 73.1 47.8 42.3 81.4 25.9c5.5-2.7 10.1-4.8 10.2-4.6.2.2-9.1 45.3-20.7 100.2zm136.9-84.6c25.1 18.7 42.3 45.9 48.3 76.6 1.5 7.8 1.8 31.9.6 40.7l-.8 5.8h-48c-38.9 0-47.9-.2-47.9-1.3 0-1 25.3-121.9 27.5-131.5l.5-2.2 5.8 2.9c3.2 1.6 9.5 5.7 14 9zM204 237c-8 6.3-29.1 15.2-44.2 18.7-10.2 2.3-38.4 2.3-48.6 0C96.1 252.2 75 243.3 67 237c-2.5-2-2.3-2 68.5-2s71 0 68.5 2z"/></svg>